<svg xmlns="http://www.w3.org/2000/svg" viewBox="0 0 1440 320">
    <path fill="#FFFFFF" fill-opacity="1"
          d="M0,32L30,53.3C60,75,120,117,180,154.7C240,192,300,224,360,240C420,256,480,256,540,218.7C600,181,660,107,720,112C780,117,840,203,900,208C960,213,1020,139,1080,112C1140,85,1200,107,1260,101.3C1320,96,1380,64,1410,48L1440,32L1440,320L1410,320C1380,320,1320,320,1260,320C1200,320,1140,320,1080,320C1020,320,960,320,900,320C840,320,780,320,720,320C660,320,600,320,540,320C480,320,420,320,360,320C300,320,240,320,180,320C120,320,60,320,30,320L0,320Z"></path>
</svg>
