<?xml version="1.0" standalone="no"?>
<!DOCTYPE svg PUBLIC "-//W3C//DTD SVG 20010904//EN"
 "http://www.w3.org/TR/2001/REC-SVG-20010904/DTD/svg10.dtd">
<svg version="1.0" xmlns="http://www.w3.org/2000/svg"
 width="896.000000pt" height="896.000000pt" viewBox="0 0 896.000000 896.000000"
 preserveAspectRatio="xMidYMid meet">
<metadata>
Created by potrace 1.11, written by Peter Selinger 2001-2013
</metadata>
<g transform="translate(0.000000,896.000000) scale(0.100000,-0.100000)"
fill="#000000" stroke="none">
<path d="M3719 8956 c-2 -2 -33 -6 -69 -10 -102 -10 -169 -20 -270 -42 -14 -3
-36 -7 -50 -10 -45 -9 -173 -45 -255 -72 -44 -15 -82 -27 -85 -28 -11 -2 -41
-14 -175 -69 -92 -38 -356 -165 -365 -176 -3 -4 -25 -17 -50 -29 -25 -12 -47
-26 -50 -30 -3 -4 -21 -15 -40 -25 -35 -18 -170 -104 -180 -115 -3 -3 -32 -23
-65 -45 -33 -22 -65 -44 -72 -50 -15 -12 -25 -20 -83 -65 -320 -249 -642 -583
-862 -895 -31 -44 -63 -87 -70 -96 -7 -9 -19 -27 -27 -40 -8 -13 -43 -69 -76
-124 -115 -187 -278 -504 -278 -542 0 -7 -4 -13 -9 -13 -4 0 -8 -6 -8 -14 0
-7 -11 -38 -24 -67 -37 -87 -134 -376 -147 -444 -2 -5 -9 -30 -16 -55 -16 -53
-56 -225 -69 -295 -2 -16 -7 -41 -9 -55 -3 -14 -7 -36 -10 -50 -3 -14 -8 -45
-11 -70 -3 -25 -7 -52 -9 -60 -4 -13 -12 -82 -21 -165 -1 -16 -4 -30 -4 -30
-1 0 -3 -18 -5 -40 -1 -22 -6 -80 -11 -130 -5 -49 -8 -243 -7 -430 2 -317 4
-388 17 -505 2 -25 8 -81 11 -125 4 -44 9 -83 12 -87 2 -4 6 -31 9 -60 5 -54
11 -103 14 -103 1 0 3 -16 5 -35 4 -37 14 -99 21 -140 3 -14 7 -38 9 -55 2
-16 4 -30 5 -30 2 0 8 -29 14 -65 5 -29 12 -60 32 -149 8 -36 17 -77 20 -91 3
-14 11 -46 19 -72 8 -27 12 -48 9 -48 -3 0 0 -8 5 -18 6 -11 12 -30 14 -43 3
-13 13 -50 22 -83 9 -32 18 -64 20 -70 1 -6 5 -18 8 -26 6 -16 59 -188 63
-205 3 -14 113 -316 124 -340 5 -11 28 -65 51 -120 68 -164 264 -556 281 -563
5 -2 8 -8 8 -13 0 -14 143 -238 219 -344 62 -85 150 -198 215 -275 44 -52 315
-320 324 -320 4 0 27 -19 52 -41 25 -22 65 -55 90 -72 25 -17 47 -34 48 -39 2
-4 9 -8 15 -8 6 0 18 -7 27 -15 22 -20 177 -113 201 -120 10 -4 19 -11 19 -16
0 -5 7 -9 15 -9 8 0 36 -11 62 -25 63 -33 148 -69 198 -84 22 -7 49 -16 60
-21 25 -12 192 -60 225 -66 14 -2 32 -5 40 -7 95 -23 213 -40 355 -54 123 -12
670 -6 670 7 0 1 16 3 35 5 58 4 153 15 180 20 13 3 42 7 65 10 47 7 81 13
115 20 14 3 37 7 53 10 98 18 122 23 122 25 0 1 11 3 25 5 14 1 45 8 70 15 25
7 52 13 61 15 8 2 69 17 135 35 65 17 126 33 134 35 22 5 243 75 260 83 8 3
20 7 25 8 6 1 12 3 15 4 3 1 12 3 20 5 15 4 203 70 230 82 8 3 17 7 20 8 3 1
19 7 35 14 17 6 44 16 60 22 17 6 49 20 72 30 24 11 46 19 50 19 5 1 26 9 48
20 22 11 43 19 47 20 4 0 33 12 65 26 72 31 89 39 131 56 17 7 32 16 32 20 0
5 3 7 8 6 12 -3 82 25 82 34 0 4 3 7 8 6 9 -2 42 10 62 23 8 5 23 12 32 15 39
14 498 250 588 303 8 5 71 42 139 83 139 81 163 96 252 152 87 55 383 264 426
300 7 6 24 20 39 31 14 11 31 25 37 30 7 6 34 28 62 50 27 22 65 54 85 72 19
17 51 46 70 63 71 65 147 139 215 212 116 125 145 158 145 168 0 4 3 10 8 12
4 2 23 23 42 48 19 25 37 47 40 50 4 3 34 48 68 100 34 52 66 100 70 106 18
26 111 200 112 209 0 3 9 24 19 48 30 64 71 177 64 177 -3 0 0 7 7 15 7 8 9
15 5 15 -4 0 -1 7 6 17 8 9 13 19 11 22 -1 3 2 26 8 51 6 25 13 59 15 75 2 17
4 30 5 30 2 0 8 33 16 90 9 67 10 386 1 455 -4 30 -9 73 -12 95 -3 22 -10 60
-15 85 -5 25 -12 56 -14 70 -6 37 -17 83 -23 100 -4 8 -7 20 -8 25 -5 38 -72
253 -85 277 -6 10 -10 22 -10 28 0 6 -7 27 -16 48 -10 20 -18 42 -19 48 -2 6
-22 54 -45 105 -23 52 -43 99 -44 104 -3 14 -118 246 -169 340 -79 146 -92
169 -104 183 -7 7 -13 20 -13 28 0 8 -5 14 -11 14 -5 0 -7 5 -4 10 3 6 2 10
-3 10 -4 0 -16 15 -25 33 -10 17 -26 46 -37 62 -11 17 -23 37 -27 45 -25 56
-457 691 -475 698 -4 2 -8 8 -8 13 0 8 -20 35 -47 64 -7 8 -13 18 -13 23 0 6
-3 12 -8 14 -4 2 -32 37 -62 78 -29 41 -60 82 -67 90 -8 8 -48 60 -90 115 -42
55 -80 102 -85 103 -4 2 -8 9 -8 16 0 6 -8 19 -17 27 -10 9 -27 29 -38 44 -11
16 -24 33 -30 39 -5 6 -22 27 -37 48 -15 20 -34 42 -41 50 -7 7 -26 31 -42 52
-17 22 -42 53 -57 70 -14 17 -61 74 -105 126 -43 52 -88 106 -100 120 -12 14
-30 34 -40 46 -20 24 -129 147 -183 207 -214 238 -551 565 -748 725 -22 19
-50 41 -61 50 -26 22 -67 54 -116 92 -22 16 -45 34 -50 38 -6 5 -24 17 -40 28
-17 10 -32 21 -35 24 -10 12 -185 124 -189 121 -2 -1 -7 1 -10 7 -8 12 -167
104 -208 121 -18 7 -33 17 -33 22 0 5 -6 9 -14 9 -8 0 -31 9 -53 20 -133 68
-351 149 -503 186 -8 2 -33 8 -55 14 -22 5 -60 12 -85 15 -25 4 -54 9 -65 12
-11 4 -36 8 -55 10 -47 5 -437 13 -441 9z"/>
</g>
</svg>
