<?xml version="1.0" encoding="utf-8"?>
<!-- Generator: Adobe Illustrator 19.0.0, SVG Export Plug-In . SVG Version: 6.00 Build 0)  -->
<svg version="1.1" id="Ñëîé_1" xmlns="http://www.w3.org/2000/svg" xmlns:xlink="http://www.w3.org/1999/xlink" x="0px" y="0px"
	 viewBox="0 0 600 600" style="enable-background:new 0 0 600 600;" xml:space="preserve">
<style type="text/css">
	.st0{fill:#EFEFEF;}
	.st1{fill:#173D7A;}
	.st2{fill:#396CAA;}
	.st3{fill:#274F89;}
	.st4{fill:#D4ECFF;}
	.st5{fill:#FFFFFF;}
	.st6{fill:#5793CE;}
	.st7{fill:#B9DFF9;}
	.st8{fill:#FF2C9C;}
	.st9{fill:#0A2D60;}
	.st10{fill:#D3008D;}
</style>
<g>
	<g>
		<path class="st0" d="M317.7,486.1L126.3,375.6c-5.4-3.1-4.7-8.6,1.5-12.2l130.3-75.2c6.3-3.6,15.7-4,21.1-0.9l191.4,110.5
			c5.4,3.1,4.7,8.6-1.5,12.2l-130.3,75.2C332.6,488.9,323.1,489.3,317.7,486.1z"/>
		<path class="st1" d="M515.5,202.1L324.1,91.6c-2.2-1.3-4.5-1.5-6.5-0.8l0,0l-0.3,0.1c0,0-0.1,0-0.1,0l-6.9,2.6l6.2,3
			c0,0.1-0.1,0.2-0.1,0.3l-31.2,141.9c-1.6,7.1,1.6,15.4,7,18.5L479,365.2l-0.7,7.9l7.6-2.9c2.5-1.2,4.6-3.9,5.4-7.7l31.2-141.9
			C524,213.5,520.9,205.2,515.5,202.1z"/>
		<path class="st2" d="M515.5,202.1L324.1,91.6c-2.2-1.3-4.5-1.5-6.5-0.8l0,0l-0.3,0.1c0,0-0.1,0-0.1,0l-6.9,2.6l6.2,3
			c0,0.1-0.1,0.2-0.1,0.3l-20.5,93.5l93.6,73l132-53.7C520.3,206.5,518.1,203.7,515.5,202.1z"/>
		<path class="st3" d="M508.3,223.9l14.6-6.2c0.3-5.6-2.1-11.5-5.9-14.6l-23.1,9.7L508.3,223.9z"/>
		<path class="st4" d="M471.7,372.4L280.3,261.9c-5.4-3.1-8.5-11.4-7-18.5l31.2-141.9c1.6-7.1,7.2-10.3,12.6-7.2l191.4,110.5
			c5.4,3.1,8.5,11.4,7,18.5l-31.2,141.9C482.7,372.3,477.1,375.5,471.7,372.4z"/>
		<path class="st5" d="M467.5,361.9L287.5,258c-5-2.9-7.8-10.4-6.4-16.9l28.5-129.8c1.4-6.5,6.6-9.4,11.6-6.6l180,103.9
			c5,2.9,7.8,10.4,6.4,16.9l-28.5,129.8C477.6,361.8,472.5,364.7,467.5,361.9z"/>
		<path class="st1" d="M467.5,361.9L287.5,258c-5-2.9-7.8-10.4-6.4-16.9l28.5-129.8c1.4-6.5,6.6-9.4,11.6-6.6l180,103.9
			c5,2.9,7.8,10.4,6.4,16.9l-28.5,129.8C477.6,361.8,472.5,364.7,467.5,361.9z"/>
		<path class="st1" d="M474.3,377.2l-26.2-3.5l-168.9-97.5c-5.4-3.1-14.9-2.7-21.1,0.9l-119.7,69.1l-15.8-2.1v9l0,0
			c-0.1,2.1,1.1,4.1,3.6,5.5l191.4,110.5c5.4,3.1,14.9,2.7,21.1-0.9L469.1,393c3.5-2,5.3-4.6,5.2-7.1l0,0V377.2z"/>
		<path class="st2" d="M347.4,315.6l-12-6.9H203.5l-65,37.5l-15.8-2.1v9l0,0c-0.1,2.1,1.1,4.1,3.6,5.5l191.4,110.5
			c2.9,1.7,6.9,2.3,10.9,2L347.4,315.6z"/>
		<path class="st6" d="M129.7,345l-7-0.9v9l0,0c-0.1,2.1,1.1,4.1,3.6,5.5l3.4,1.9V345z"/>
		<path class="st3" d="M319.6,470c5.1,1.9,12.5,1.5,17.9-1.1v-20h-17.9V470z"/>
		<path class="st4" d="M317.7,460.2L126.3,349.7c-5.4-3.1-4.7-8.6,1.5-12.2l130.3-75.2c6.3-3.6,15.7-4,21.1-0.9l191.4,110.5
			c5.4,3.1,4.7,8.6-1.5,12.2l-130.3,75.2C332.6,462.9,323.1,463.3,317.7,460.2z"/>
		<path class="st5" d="M469.1,380.8L338.8,456c-6.3,3.6-15.7,4-21.1,0.9L126.3,346.4c-1.8-1-2.9-2.3-3.4-3.7c-0.8,2.6,0.2,5.2,3.4,7
			l191.4,110.5c5.4,3.1,14.9,2.7,21.1-0.9l130.3-75.2c4.2-2.4,5.9-5.7,4.9-8.5C473.4,377.4,471.8,379.3,469.1,380.8z"/>
		<g>
			<path class="st7" d="M207.7,313.1l-8.7-5c-0.7-0.4-0.6-1.1,0.2-1.6l10.2-5.9c0.8-0.5,2-0.5,2.7-0.1l8.7,5
				c0.7,0.4,0.6,1.1-0.2,1.6l-10.2,5.9C209.6,313.4,208.4,313.5,207.7,313.1z"/>
			<path class="st7" d="M221.1,320.8l-8.7-5c-0.7-0.4-0.6-1.1,0.2-1.6l10.2-5.9c0.8-0.5,2-0.5,2.7-0.1l8.7,5
				c0.7,0.4,0.6,1.1-0.2,1.6l-10.2,5.9C223,321.2,221.8,321.2,221.1,320.8z"/>
			<path class="st7" d="M234.5,328.5l-8.7-5c-0.7-0.4-0.6-1.1,0.2-1.6l10.2-5.9c0.8-0.5,2-0.5,2.7-0.1l8.7,5
				c0.7,0.4,0.6,1.1-0.2,1.6l-10.2,5.9C236.4,328.9,235.2,328.9,234.5,328.5z"/>
			<path class="st7" d="M253,322.2l-8.7-5c-0.7-0.4-0.6-1.1,0.2-1.6l8.6-5c0.8-0.5,2-0.5,2.7-0.1l8.7,5c0.7,0.4,0.6,1.1-0.2,1.6
				l-8.6,5C254.9,322.5,253.6,322.6,253,322.2z"/>
			<path class="st7" d="M266.3,329.9l-8.7-5c-0.7-0.4-0.6-1.1,0.2-1.6l8.6-5c0.8-0.5,2-0.5,2.7-0.1l8.7,5c0.7,0.4,0.6,1.1-0.2,1.6
				l-8.6,5C268.2,330.2,267,330.3,266.3,329.9z"/>
			<path class="st7" d="M279.7,337.6l-8.7-5c-0.7-0.4-0.6-1.1,0.2-1.6l8.6-5c0.8-0.5,2-0.5,2.7-0.1l8.7,5c0.7,0.4,0.6,1.1-0.2,1.6
				l-8.6,5C281.6,337.9,280.4,338,279.7,337.6z"/>
			<path class="st7" d="M293.1,345.3l-8.7-5c-0.7-0.4-0.6-1.1,0.2-1.6l8.6-5c0.8-0.5,2-0.5,2.7-0.1l8.7,5c0.7,0.4,0.6,1.1-0.2,1.6
				l-8.6,5C295,345.7,293.8,345.7,293.1,345.3z"/>
			<path class="st7" d="M306.4,353l-8.7-5c-0.7-0.4-0.6-1.1,0.2-1.6l8.6-5c0.8-0.5,2-0.5,2.7-0.1l8.7,5c0.7,0.4,0.6,1.1-0.2,1.6
				l-8.6,5C308.4,353.4,307.1,353.4,306.4,353z"/>
			<path class="st7" d="M319.8,360.8l-8.7-5c-0.7-0.4-0.6-1.1,0.2-1.6l8.6-5c0.8-0.5,2-0.5,2.7-0.1l8.7,5c0.7,0.4,0.6,1.1-0.2,1.6
				l-8.6,5C321.7,361.1,320.5,361.2,319.8,360.8z"/>
			<path class="st7" d="M333.2,368.5l-8.7-5c-0.7-0.4-0.6-1.1,0.2-1.6l8.6-5c0.8-0.5,2-0.5,2.7-0.1l8.7,5c0.7,0.4,0.6,1.1-0.2,1.6
				l-8.6,5C335.1,368.8,333.9,368.9,333.2,368.5z"/>
			<path class="st7" d="M346.6,376.2l-8.7-5c-0.7-0.4-0.6-1.1,0.2-1.6l8.6-5c0.8-0.5,2-0.5,2.7-0.1l8.7,5c0.7,0.4,0.6,1.1-0.2,1.6
				l-8.6,5C348.5,376.6,347.3,376.6,346.6,376.2z"/>
			<path class="st7" d="M359.9,383.9l-8.7-5c-0.7-0.4-0.6-1.1,0.2-1.6l8.6-5c0.8-0.5,2-0.5,2.7-0.1l8.7,5c0.7,0.4,0.6,1.1-0.2,1.6
				l-8.6,5C361.8,384.3,360.6,384.3,359.9,383.9z"/>
			<path class="st7" d="M373.3,391.6l-8.7-5c-0.7-0.4-0.6-1.1,0.2-1.6l8.6-5c0.8-0.5,2-0.5,2.7-0.1l8.7,5c0.7,0.4,0.6,1.1-0.2,1.6
				l-8.6,5C375.2,392,374,392,373.3,391.6z"/>
			<path class="st7" d="M272.7,318.5l-8.7-5c-0.7-0.4-0.6-1.1,0.2-1.6l8.6-5c0.8-0.5,2-0.5,2.7-0.1l8.7,5c0.7,0.4,0.6,1.1-0.2,1.6
				l-8.6,5C274.6,318.9,273.4,318.9,272.7,318.5z"/>
			<path class="st7" d="M259.1,310.7l-8.7-5c-0.7-0.4-0.6-1.1,0.2-1.6l8.6-5c0.8-0.5,2-0.5,2.7-0.1l8.7,5c0.7,0.4,0.6,1.1-0.2,1.6
				l-8.6,5C261,311,259.8,311.1,259.1,310.7z"/>
			<path class="st7" d="M245.5,302.8l-18.6-10.8c-0.7-0.4-0.6-1.1,0.2-1.6l8.6-5c0.8-0.5,2-0.5,2.7-0.1l18.6,10.8
				c0.7,0.4,0.6,1.1-0.2,1.6l-8.6,5C247.4,303.2,246.2,303.2,245.5,302.8z"/>
			<path class="st7" d="M255,293.3l-15.1-8.7c-0.7-0.4-0.6-1.1,0.2-1.6l8.6-5c0.8-0.5,2-0.5,2.7-0.1l15.1,8.7
				c0.7,0.4,0.6,1.1-0.2,1.6l-8.6,5C256.9,293.6,255.7,293.7,255,293.3z"/>
			<path class="st7" d="M286,326.2l-8.7-5c-0.7-0.4-0.6-1.1,0.2-1.6l8.6-5c0.8-0.5,2-0.5,2.7-0.1l8.7,5c0.7,0.4,0.6,1.1-0.2,1.6
				l-8.6,5C287.9,326.6,286.7,326.6,286,326.2z"/>
			<path class="st7" d="M299.4,333.9l-8.7-5c-0.7-0.4-0.6-1.1,0.2-1.6l8.6-5c0.8-0.5,2-0.5,2.7-0.1l8.7,5c0.7,0.4,0.6,1.1-0.2,1.6
				l-8.6,5C301.3,334.3,300.1,334.3,299.4,333.9z"/>
			<path class="st7" d="M312.8,341.7l-8.7-5c-0.7-0.4-0.6-1.1,0.2-1.6l8.6-5c0.8-0.5,2-0.5,2.7-0.1l8.7,5c0.7,0.4,0.6,1.1-0.2,1.6
				l-8.6,5C314.7,342,313.5,342.1,312.8,341.7z"/>
			<path class="st7" d="M326.1,349.4l-8.7-5c-0.7-0.4-0.6-1.1,0.2-1.6l8.6-5c0.8-0.5,2-0.5,2.7-0.1l8.7,5c0.7,0.4,0.6,1.1-0.2,1.6
				l-8.6,5C328.1,349.7,326.8,349.8,326.1,349.4z"/>
			<path class="st7" d="M339.5,357.1l-8.7-5c-0.7-0.4-0.6-1.1,0.2-1.6l8.6-5c0.8-0.5,2-0.5,2.7-0.1l8.7,5c0.7,0.4,0.6,1.1-0.2,1.6
				l-8.6,5C341.4,357.5,340.2,357.5,339.5,357.1z"/>
			<path class="st7" d="M352.9,364.8l-8.7-5c-0.7-0.4-0.6-1.1,0.2-1.6l8.6-5c0.8-0.5,2-0.5,2.7-0.1l8.7,5c0.7,0.4,0.6,1.1-0.2,1.6
				l-8.6,5C354.8,365.2,353.6,365.2,352.9,364.8z"/>
			<path class="st7" d="M366.3,372.5l-8.7-5c-0.7-0.4-0.6-1.1,0.2-1.6l8.6-5c0.8-0.5,2-0.5,2.7-0.1l8.7,5c0.7,0.4,0.6,1.1-0.2,1.6
				l-8.6,5C368.2,372.9,367,372.9,366.3,372.5z"/>
			<path class="st7" d="M379.6,380.3l-8.7-5c-0.7-0.4-0.6-1.1,0.2-1.6l8.6-5c0.8-0.5,2-0.5,2.7-0.1l8.7,5c0.7,0.4,0.6,1.1-0.2,1.6
				l-8.6,5C381.5,380.6,380.3,380.7,379.6,380.3z"/>
			<path class="st7" d="M393,388l-8.7-5c-0.7-0.4-0.6-1.1,0.2-1.6l8.6-5c0.8-0.5,2-0.5,2.7-0.1l8.7,5c0.7,0.4,0.6,1.1-0.2,1.6
				l-8.6,5C394.9,388.3,393.7,388.4,393,388z"/>
			<path class="st7" d="M416.8,401.7l-18.9-10.9c-0.7-0.4-0.6-1.1,0.2-1.6l8.6-5c0.8-0.5,2-0.5,2.7-0.1l18.9,10.9
				c0.7,0.4,0.6,1.1-0.2,1.6l-8.6,5C418.7,402.1,417.5,402.1,416.8,401.7z"/>
			<path class="st7" d="M442.8,386.7l-15.9-9.2c-0.7-0.4-0.6-1.1,0.2-1.6l8.6-5c0.8-0.5,2-0.5,2.7-0.1l15.9,9.2
				c0.7,0.4,0.6,1.1-0.2,1.6l-8.6,5C444.7,387,443.5,387.1,442.8,386.7z"/>
			<path class="st7" d="M309.4,324.7l-8.7-5c-0.7-0.4-0.6-1.1,0.2-1.6l8.6-5c0.8-0.5,2-0.5,2.7-0.1l8.7,5c0.7,0.4,0.6,1.1-0.2,1.6
				l-8.6,5C311.4,325.1,310.1,325.1,309.4,324.7z"/>
			<path class="st7" d="M295.7,316.8l-8.7-5c-0.7-0.4-0.6-1.1,0.2-1.6l8.6-5c0.8-0.5,2-0.5,2.7-0.1l8.7,5c0.7,0.4,0.6,1.1-0.2,1.6
				l-8.6,5C297.7,317.2,296.4,317.2,295.7,316.8z"/>
			<path class="st7" d="M282,308.9l-8.7-5c-0.7-0.4-0.6-1.1,0.2-1.6l8.6-5c0.8-0.5,2-0.5,2.7-0.1l8.7,5c0.7,0.4,0.6,1.1-0.2,1.6
				l-8.6,5C283.9,309.2,282.7,309.3,282,308.9z"/>
			<path class="st7" d="M268.3,301l-8.7-5c-0.7-0.4-0.6-1.1,0.2-1.6l8.6-5c0.8-0.5,2-0.5,2.7-0.1l8.7,5c0.7,0.4,0.6,1.1-0.2,1.6
				l-8.6,5C270.2,301.3,269,301.4,268.3,301z"/>
			<path class="st7" d="M322.8,332.4l-8.7-5c-0.7-0.4-0.6-1.1,0.2-1.6l8.6-5c0.8-0.5,2-0.5,2.7-0.1l8.7,5c0.7,0.4,0.6,1.1-0.2,1.6
				l-8.6,5C324.7,332.8,323.5,332.8,322.8,332.4z"/>
			<path class="st7" d="M336.2,340.2l-8.7-5c-0.7-0.4-0.6-1.1,0.2-1.6l8.6-5c0.8-0.5,2-0.5,2.7-0.1l8.7,5c0.7,0.4,0.6,1.1-0.2,1.6
				l-8.6,5C338.1,340.5,336.9,340.6,336.2,340.2z"/>
			<path class="st7" d="M349.6,347.9l-8.7-5c-0.7-0.4-0.6-1.1,0.2-1.6l8.6-5c0.8-0.5,2-0.5,2.7-0.1l8.7,5c0.7,0.4,0.6,1.1-0.2,1.6
				l-8.6,5C351.5,348.2,350.3,348.3,349.6,347.9z"/>
			<path class="st7" d="M362.9,355.6l-8.7-5c-0.7-0.4-0.6-1.1,0.2-1.6l8.6-5c0.8-0.5,2-0.5,2.7-0.1l8.7,5c0.7,0.4,0.6,1.1-0.2,1.6
				l-8.6,5C364.8,355.9,363.6,356,362.9,355.6z"/>
			<path class="st7" d="M376.3,363.3l-8.7-5c-0.7-0.4-0.6-1.1,0.2-1.6l8.6-5c0.8-0.5,2-0.5,2.7-0.1l8.7,5c0.7,0.4,0.6,1.1-0.2,1.6
				l-8.6,5C378.2,363.7,377,363.7,376.3,363.3z"/>
			<path class="st7" d="M389.7,371l-8.7-5c-0.7-0.4-0.6-1.1,0.2-1.6l8.6-5c0.8-0.5,2-0.5,2.7-0.1l8.7,5c0.7,0.4,0.6,1.1-0.2,1.6
				l-8.6,5C391.6,371.4,390.4,371.4,389.7,371z"/>
			<path class="st7" d="M403.1,378.8l-8.7-5c-0.7-0.4-0.6-1.1,0.2-1.6l8.6-5c0.8-0.5,2-0.5,2.7-0.1l8.7,5c0.7,0.4,0.6,1.1-0.2,1.6
				l-8.6,5C405,379.1,403.7,379.2,403.1,378.8z"/>
			<path class="st7" d="M416.4,386.5l-8.7-5c-0.7-0.4-0.6-1.1,0.2-1.6l8.6-5c0.8-0.5,2-0.5,2.7-0.1l8.7,5c0.7,0.4,0.6,1.1-0.2,1.6
				l-8.6,5C418.3,386.8,417.1,386.9,416.4,386.5z"/>
			<path class="st7" d="M429.8,394.2l-8.7-5c-0.7-0.4-0.6-1.1,0.2-1.6l8.6-5c0.8-0.5,2-0.5,2.7-0.1l8.7,5c0.7,0.4,0.6,1.1-0.2,1.6
				l-8.6,5C431.7,394.5,430.5,394.6,429.8,394.2z"/>
			<path class="st7" d="M302.4,305.6l-8.7-5c-0.7-0.4-0.6-1.1,0.2-1.6l8.6-5c0.8-0.5,2-0.5,2.7-0.1l8.7,5c0.7,0.4,0.6,1.1-0.2,1.6
				l-8.6,5C304.3,306,303.1,306,302.4,305.6z"/>
			<path class="st7" d="M289.1,297.9l-8.7-5c-0.7-0.4-0.6-1.1,0.2-1.6l8.6-5c0.8-0.5,2-0.5,2.7-0.1l8.7,5c0.7,0.4,0.6,1.1-0.2,1.6
				l-8.6,5C291,298.3,289.8,298.3,289.1,297.9z"/>
			<path class="st7" d="M275.8,290.3l-8.7-5c-0.7-0.4-0.6-1.1,0.2-1.6l8.6-5c0.8-0.5,2-0.5,2.7-0.1l8.7,5c0.7,0.4,0.6,1.1-0.2,1.6
				l-8.6,5C277.7,290.6,276.5,290.7,275.8,290.3z"/>
			<path class="st7" d="M262.5,282.6l-8.7-5c-0.7-0.4-0.6-1.1,0.2-1.6l8.6-5c0.8-0.5,2-0.5,2.7-0.1l8.7,5c0.7,0.4,0.6,1.1-0.2,1.6
				l-8.6,5C264.4,282.9,263.2,283,262.5,282.6z"/>
			<path class="st7" d="M276.2,274.7l-8.7-5c-0.7-0.4-0.6-1.1,0.2-1.6l2.8-1.6c0.8-0.5,2-0.5,2.7-0.1l8.7,5c0.7,0.4,0.6,1.1-0.2,1.6
				l-2.8,1.6C278.1,275,276.9,275.1,276.2,274.7z"/>
			<path class="st7" d="M293.5,284.7l-8.7-5c-0.7-0.4-0.6-1.1,0.2-1.6l2.8-1.6c0.8-0.5,2-0.5,2.7-0.1l8.7,5c0.7,0.4,0.6,1.1-0.2,1.6
				l-2.8,1.6C295.4,285,294.2,285.1,293.5,284.7z"/>
			<path class="st7" d="M306.8,292.3l-8.7-5c-0.7-0.4-0.6-1.1,0.2-1.6l2.8-1.6c0.8-0.5,2-0.5,2.7-0.1l8.7,5c0.7,0.4,0.6,1.1-0.2,1.6
				l-2.8,1.6C308.7,292.7,307.5,292.7,306.8,292.3z"/>
			<path class="st7" d="M320,300l-8.7-5c-0.7-0.4-0.6-1.1,0.2-1.6l2.8-1.6c0.8-0.5,2-0.5,2.7-0.1l8.7,5c0.7,0.4,0.6,1.1-0.2,1.6
				l-2.8,1.6C321.9,300.3,320.7,300.4,320,300z"/>
			<path class="st7" d="M333.3,307.6l-8.7-5c-0.7-0.4-0.6-1.1,0.2-1.6l2.8-1.6c0.8-0.5,2-0.5,2.7-0.1l8.7,5c0.7,0.4,0.6,1.1-0.2,1.6
				l-2.8,1.6C335.2,308,334,308,333.3,307.6z"/>
			<path class="st7" d="M407.3,350.4l-8.7-5c-0.7-0.4-0.6-1.1,0.2-1.6l2.8-1.6c0.8-0.5,2-0.5,2.7-0.1l8.7,5c0.7,0.4,0.6,1.1-0.2,1.6
				l-2.8,1.6C409.2,350.7,408,350.8,407.3,350.4z"/>
			<path class="st7" d="M420.5,358l-8.7-5c-0.7-0.4-0.6-1.1,0.2-1.6l2.8-1.6c0.8-0.5,2-0.5,2.7-0.1l8.7,5c0.7,0.4,0.6,1.1-0.2,1.6
				l-2.8,1.6C422.4,358.4,421.2,358.4,420.5,358z"/>
			<path class="st7" d="M433.8,365.7l-8.7-5c-0.7-0.4-0.6-1.1,0.2-1.6l2.8-1.6c0.8-0.5,2-0.5,2.7-0.1l8.7,5c0.7,0.4,0.6,1.1-0.2,1.6
				l-2.8,1.6C435.7,366,434.5,366.1,433.8,365.7z"/>
			<path class="st7" d="M447,373.3l-8.7-5c-0.7-0.4-0.6-1.1,0.2-1.6l2.8-1.6c0.8-0.5,2-0.5,2.7-0.1l8.7,5c0.7,0.4,0.6,1.1-0.2,1.6
				l-2.8,1.6C448.9,373.7,447.7,373.7,447,373.3z"/>
			<path class="st7" d="M315.8,313.3l-8.7-5c-0.7-0.4-0.6-1.1,0.2-1.6l8.6-5c0.8-0.5,2-0.5,2.7-0.1l8.7,5c0.7,0.4,0.6,1.1-0.2,1.6
				l-8.6,5C317.7,313.7,316.5,313.7,315.8,313.3z"/>
			<path class="st7" d="M329.1,321.1l-8.7-5c-0.7-0.4-0.6-1.1,0.2-1.6l8.6-5c0.8-0.5,2-0.5,2.7-0.1l8.7,5c0.7,0.4,0.6,1.1-0.2,1.6
				l-8.6,5C331.1,321.4,329.8,321.5,329.1,321.1z"/>
			<path class="st7" d="M342.5,328.8l-8.7-5c-0.7-0.4-0.6-1.1,0.2-1.6l8.6-5c0.8-0.5,2-0.5,2.7-0.1l8.7,5c0.7,0.4,0.6,1.1-0.2,1.6
				l-8.6,5C344.4,329.1,343.2,329.2,342.5,328.8z"/>
			<path class="st7" d="M355.9,336.5l-8.7-5c-0.7-0.4-0.6-1.1,0.2-1.6l8.6-5c0.8-0.5,2-0.5,2.7-0.1l8.7,5c0.7,0.4,0.6,1.1-0.2,1.6
				l-8.6,5C357.8,336.8,356.6,336.9,355.9,336.5z"/>
			<path class="st7" d="M369.3,344.2l-8.7-5c-0.7-0.4-0.6-1.1,0.2-1.6l8.6-5c0.8-0.5,2-0.5,2.7-0.1l8.7,5c0.7,0.4,0.6,1.1-0.2,1.6
				l-8.6,5C371.2,344.6,370,344.6,369.3,344.2z"/>
			<path class="st7" d="M382.6,351.9l-8.7-5c-0.7-0.4-0.6-1.1,0.2-1.6l8.6-5c0.8-0.5,2-0.5,2.7-0.1l8.7,5c0.7,0.4,0.6,1.1-0.2,1.6
				l-8.6,5C384.5,352.3,383.3,352.3,382.6,351.9z"/>
			<path class="st7" d="M396,359.7l-8.7-5c-0.7-0.4-0.6-1.1,0.2-1.6l8.6-5c0.8-0.5,2-0.5,2.7-0.1l8.7,5c0.7,0.4,0.6,1.1-0.2,1.6
				l-8.6,5C397.9,360,396.7,360.1,396,359.7z"/>
			<path class="st7" d="M409.4,367.4l-8.7-5c-0.7-0.4-0.6-1.1,0.2-1.6l8.6-5c0.8-0.5,2-0.5,2.7-0.1l8.7,5c0.7,0.4,0.6,1.1-0.2,1.6
				l-8.6,5C411.3,367.7,410.1,367.8,409.4,367.4z"/>
			<path class="st7" d="M422.8,375.1l-8.7-5c-0.7-0.4-0.6-1.1,0.2-1.6l8.6-5c0.8-0.5,2-0.5,2.7-0.1l8.7,5c0.7,0.4,0.6,1.1-0.2,1.6
				l-8.6,5C424.7,375.5,423.5,375.5,422.8,375.1z"/>
			<path class="st7" d="M239.3,314.3l-25.5-14.7c-0.7-0.4-0.6-1.1,0.2-1.6l8.6-5c0.8-0.5,2-0.5,2.7-0.1l25.5,14.7
				c0.7,0.4,0.6,1.1-0.2,1.6l-8.6,5C241.2,314.6,240,314.7,239.3,314.3z"/>
			<path class="st7" d="M403.6,409.1l-25.5-14.7c-0.7-0.4-0.6-1.1,0.2-1.6l8.6-5c0.8-0.5,2-0.5,2.7-0.1l25.5,14.7
				c0.7,0.4,0.6,1.1-0.2,1.6l-8.6,5C405.5,409.5,404.3,409.5,403.6,409.1z"/>
			<path class="st7" d="M350.1,395.3l-8.7-5c-0.7-0.4-0.6-1.1,0.2-1.6l10.2-5.9c0.8-0.5,2-0.5,2.7-0.1l8.7,5
				c0.7,0.4,0.6,1.1-0.2,1.6l-10.2,5.9C352,395.7,350.8,395.7,350.1,395.3z"/>
			<path class="st7" d="M253,339.2l-13.8-8c-0.7-0.4-0.6-1.1,0.2-1.6l10.2-5.9c0.8-0.5,2-0.5,2.7-0.1l13.8,8
				c0.7,0.4,0.6,1.1-0.2,1.6l-10.2,5.9C254.9,339.6,253.7,339.7,253,339.2z"/>
			<path class="st7" d="M337.2,387.9l-13.8-8c-0.7-0.4-0.6-1.1,0.2-1.6l10.2-5.9c0.8-0.5,2-0.5,2.7-0.1l13.8,8
				c0.7,0.4,0.6,1.1-0.2,1.6l-10.2,5.9C339.2,388.2,337.9,388.3,337.2,387.9z"/>
			<path class="st7" d="M272.3,350.4l-13.8-8c-0.7-0.4-0.6-1.1,0.2-1.6l10.2-5.9c0.8-0.5,2-0.5,2.7-0.1l13.8,8
				c0.7,0.4,0.6,1.1-0.2,1.6l-10.2,5.9C274.2,350.7,273,350.8,272.3,350.4z"/>
			<path class="st7" d="M271.7,334.9l60.2,34.8c0.7,0.4,0.7,1.1,0,1.6l-10.4,6c-0.7,0.4-2,0.4-2.7,0l-60.2-34.8L271.7,334.9z"/>
			<path class="st7" d="M387.5,409.3l9.6,5.6c0.6,0.3,0.5,0.9-0.2,1.3l-4.2,2.4c-0.7,0.4-1.7,0.4-2.2,0.1l-9.6-5.6
				c-0.6-0.3-0.5-0.9,0.2-1.3l4.2-2.4C385.9,409,386.9,409,387.5,409.3z"/>
			<path class="st7" d="M374,401.5l9.6,5.6c0.6,0.3,0.5,0.9-0.2,1.3l-4.2,2.4c-0.7,0.4-1.7,0.4-2.2,0.1l-9.6-5.6
				c-0.6-0.3-0.5-0.9,0.2-1.3l4.2-2.4C372.5,401.2,373.5,401.2,374,401.5z"/>
			<path class="st7" d="M360.6,393.8l9.6,5.6c0.6,0.3,0.5,0.9-0.2,1.3l-4.2,2.4c-0.7,0.4-1.7,0.4-2.2,0.1l-9.6-5.6
				c-0.6-0.3-0.5-0.9,0.2-1.3l4.2-2.4C359.1,393.5,360.1,393.5,360.6,393.8z"/>
			<path class="st7" d="M381.4,397.3l9.6,5.6c0.6,0.3,0.5,0.9-0.2,1.3l-4.2,2.4c-0.7,0.4-1.7,0.4-2.2,0.1l-9.6-5.6
				c-0.6-0.3-0.5-0.9,0.2-1.3l4.2-2.4C379.8,397,380.8,396.9,381.4,397.3z"/>
		</g>
		<g>
			<polygon class="st6" points="456.6,217.8 369.6,167.6 370.7,161.9 457.7,212.1 			"/>
			<polygon class="st6" points="425.4,227.3 364.7,192.3 365.8,186.6 426.5,221.7 			"/>
			<polygon class="st5" points="419.7,210.3 367.2,179.9 368.3,174.3 420.8,204.6 			"/>
			<polygon class="st8" points="454.1,230.2 427.9,215 429,209.3 455.3,224.5 			"/>
		</g>
	</g>
	<polygon class="st9" points="455.8,273.4 440.4,346.2 385.2,314.4 397.3,290.7 	"/>
	<path class="st6" d="M284.8,385.4L284.8,385.4c-15.3-8.9-15.3-31,0-39.9L362,301l78.4,45.3l-67.8,39.1
		C345.5,401,312,401,284.8,385.4z"/>
	<polygon class="st4" points="355.6,160.1 328.5,144.4 329.6,138.6 356.7,154.2 	"/>
	<polygon class="st5" points="353.2,172.5 326,156.8 327.2,151 354.3,166.6 	"/>
	<g>
		<path class="st6" d="M118.9,305.2L118.9,305.2c-12.4-6.9-20.1-22-20.2-43.6c-0.1-42.8,29.9-95.2,66.9-116.7l26.7-15.5l0,0l0,0l0,0
			l1.3,0.7L316,199l-31,20.2l-11.7,8.5l-16,16.8l-2.6,2.4l-17.1,25.9l-6.3,16.2l-4.6,12.9l-3.8,27l-0.3,2.3l1.4,11.4l3.9,14.1
			l5.6,9.6l8.1,9.6L118.9,305.2z"/>
		<path class="st4" d="M333.2,198.5l0,4.5L252,250.2c1.4-3.2,4-5.8,6.6-8.4L333.2,198.5z"/>
		<polygon class="st4" points="455.8,268.8 333.2,198.5 259.1,243 249.8,253.8 235.8,278.3 227.1,302.8 224.2,321.9 223.9,341.1 
			235.8,368.4 251.4,377.5 267.4,378.3 286.6,370.4 438.3,281.1 		"/>
		<path class="st2" d="M118.9,305.2c-10.4-5.8-17.5-17.3-19.6-33.6l125,71.6l3.7,13.3l5.6,9.6l8.1,9.6L118.9,305.2L118.9,305.2z"/>
		<g>
			<path class="st1" d="M99.8,274.8c-0.7-4.1-1.1-8.5-1.1-13.2c0-3.2,0.2-6.4,0.5-9.6l124.6,71.4l-0.8,5.4l-0.3,2.3l1.4,11.4
				l1.2,4.2L99.8,274.8z"/>
			<path class="st1" d="M455.8,273.4l0-4.5L288.5,366c-34.8,20.3-63.3,4-63.4-36.4c-0.1-40.3,28.1-89.6,63-109.9l28-16.3l0-4.5
				l-28,16.3c-37,21.5-67,73.9-66.9,116.7c0.1,42.8,30.4,60.1,67.4,38.6L455.8,273.4z"/>
		</g>
	</g>
	<g>
		<polygon class="st6" points="389,282.1 313.7,238.2 309,240.9 384.3,284.8 		"/>
		<polygon class="st6" points="386.9,257 334.4,226.4 329.6,229.1 382.2,259.7 		"/>
		<polygon class="st6" points="369.5,258.8 324,232.3 319.3,235 364.8,261.5 		"/>
		<polygon class="st6" points="399.3,276.2 376.6,262.9 371.9,265.6 394.6,278.9 		"/>
	</g>
	<g>
		<path class="st0" d="M382.6,511.7l162.5-93.9c3.9-2.3,3.4-6.2-1.1-8.9l0,0c-4.5-2.6-11.4-2.9-15.4-0.6l-162.5,93.9
			c-3.9,2.3-3.4,6.2,1.1,8.9l0,0C371.8,513.7,378.7,514,382.6,511.7z"/>
		<g>
			<path class="st8" d="M558.3,385.7L558.3,385.7c-0.1-0.2-0.4-0.4-0.7-0.3l-8.6,1.8l3.3,5.8l5.9-6.6
				C558.4,386.3,558.5,386,558.3,385.7z"/>
			<g>
				<path class="st6" d="M554.9,390c0-1.2-0.9-2.8-1.9-3.4c-0.5-0.3-0.9-0.3-1.3-0.2c-10-0.2-19.8,2.3-28.5,7.3l-0.6,0.4l10.5,18.3
					l3.2-2.1c6.7-4.4,12.4-10.2,16.7-17l1.4-2.2C554.7,391,554.9,390.5,554.9,390z"/>
				<path class="st6" d="M535.3,407.6c0-4.8-3.3-10.6-7.5-13c-4.1-2.4-7.5-0.5-7.5,4.3s3.3,10.6,7.5,13
					C531.9,414.3,535.3,412.4,535.3,407.6z"/>
				<polygon class="st6" points="469.1,451.4 533.1,412.4 522.6,394.1 456.6,429.8 				"/>
				<path class="st4" d="M471.7,445.7c0-5.6-3.9-12.5-8.8-15.3c-4.9-2.8-8.8-0.6-8.8,5.1c0,5.6,3.9,12.5,8.8,15.3
					C467.7,453.6,471.7,451.4,471.7,445.7z"/>
			</g>
			<g>
				<path class="st4" d="M468,447.8c0-5.6-3.9-12.5-8.8-15.3c-4.9-2.8-8.8-0.6-8.8,5.1c0,5.6,3.9,12.5,8.8,15.3
					C464.1,455.7,468,453.5,468,447.8z"/>
				
					<rect x="368.1" y="454.5" transform="matrix(-0.8671 0.4982 -0.4982 -0.8671 1011.0073 664.2921)" class="st4" width="97.6" height="25"/>
				<path class="st4" d="M383.4,496.5c0-5.6-3.9-12.5-8.8-15.3c-4.9-2.8-8.8-0.6-8.8,5.1c0,5.6,3.9,12.5,8.8,15.3
					C379.4,504.4,383.4,502.1,383.4,496.5z"/>
				<path class="st2" d="M380.2,494.6c-0.2-3.3-2.8-7.5-6-9.3c-3.1-1.8-5.5-0.6-5.4,2.7c0.2,3.3,2.8,7.5,6,9.3
					C378,499.2,380.4,498,380.2,494.6z"/>
			</g>
			<g>
				<path class="st5" d="M472.3,445.4c0-5.6-3.9-12.5-8.8-15.3c-2-1.1-3.8-1.4-5.2-1c1.6-1.6,4.2-1.8,7.2-0.1
					c4.9,2.8,8.8,9.7,8.8,15.3c0,3.4-1.4,5.5-3.6,6.1C471.7,449.3,472.3,447.6,472.3,445.4z"/>
				<path class="st6" d="M472.3,445.4c0-5.6-3.9-12.5-8.8-15.3c-2.4-1.4-4.6-1.6-6.2-0.6l-4.8,2.8l2.2,3.9c0.4,5.1,3.7,11,8,13.9
					l2.2,3.9l4.8-2.8l0,0C471.3,450.2,472.3,448.2,472.3,445.4z"/>
				<path class="st4" d="M467.5,448.1c0-5.6-3.9-12.5-8.8-15.3c-4.9-2.8-8.8-0.6-8.8,5.1c0,5.6,3.9,12.5,8.8,15.3
					C463.6,456,467.5,453.8,467.5,448.1z"/>
			</g>
			<g>
				<path class="st8" d="M376.2,497.1l-5.4-9.4l-17.9,10.3c-2.6,1.5-3.5,4.8-2,7.4l0,0c1.5,2.6,4.8,3.5,7.4,2L376.2,497.1z"/>
				<path class="st8" d="M377.3,494.6c0-2.4-1.7-5.4-3.8-6.6c-2.1-1.2-3.8-0.2-3.8,2.2c0,2.4,1.7,5.4,3.8,6.6
					S377.3,497.1,377.3,494.6z"/>
			</g>
			<g>
				<path class="st6" d="M397.5,462l-2.7-1.5c-1.5-0.9-3.6-0.7-5.7,0.6l-9.2,5.3c-1.7,1-3.2,3.4-3.2,5.5l0,4.6
					c0,0.8-0.4,1.7-0.9,2.3l0.3,2.1l-2.3-1.3l0,0c-0.3-0.2-0.5-0.6-0.5-1.1l0-4.6c0-4.2,3-9.3,6.6-11.4l9.2-5.3
					c3.1-1.8,6-2.1,8.1-0.8l2.7,1.5c1.5,0.9,3.6,0.7,5.7-0.6l37.2-21.4c0.5-0.3,0.9-0.3,1.2-0.1l0,0l2.3,1.3l-2,0.7
					c-0.3,0.8-0.9,1.6-1.5,2l-37.2,21.4C402.6,463,399.7,463.3,397.5,462z"/>
				<path class="st6" d="M397.1,461.8c-1.5-0.9-3.6-0.7-5.7,0.6l-9.2,5.3c-1.7,1-3.2,3.4-3.2,5.5l0,4.6c0,1.1-0.8,2.4-1.7,3
					c-0.9,0.5-1.7,0.1-1.7-1l0-4.6c0-4.2,3-9.3,6.6-11.4l9.2-5.3c3.1-1.8,6-2.1,8.1-0.8l2.7,1.5c1.5,0.9,3.6,0.7,5.7-0.6l37.2-21.4
					c0.9-0.5,1.7-0.1,1.7,1s-0.8,2.4-1.7,3L408,462.6c-3.1,1.8-6,2.1-8.1,0.8L397.1,461.8z"/>
				<g>
					<path class="st5" d="M378.9,473.9l0,4.6c0,0,0,0.1,0,0.1c0.1-0.3,0.1-0.6,0.1-0.8l0-4.6c0-0.1,0-0.3,0-0.4
						C379,473.1,378.9,473.5,378.9,473.9z"/>
				</g>
			</g>
		</g>
		<path class="st0" d="M361.5,519.2l17-9.8c2-1.2,1.8-3.3-0.6-4.6l0,0c-2.4-1.4-5.9-1.5-8-0.3l-17,9.8c-2,1.2-1.8,3.3,0.6,4.6h0
			C355.9,520.2,359.5,520.4,361.5,519.2z"/>
	</g>
	<g>
		<polygon class="st0" points="38.7,339 16,325.8 38.7,312.7 61.4,325.8 		"/>
		<polygon class="st10" points="61.4,311 38.7,324.1 38.7,297.8 61.4,284.7 		"/>
		<polygon class="st8" points="38.7,297.8 16,284.7 38.7,271.6 61.4,284.7 		"/>
		<polygon class="st8" points="38.7,324.1 16,311 16,284.7 38.7,297.8 		"/>
	</g>
	<g>
		<polygon class="st0" points="558.7,343.8 533.4,329.2 558.7,314.6 584,329.2 		"/>
		<polygon class="st1" points="584,312.6 558.7,327.2 558.7,298 584,283.4 		"/>
		<polygon class="st4" points="558.7,298 533.4,283.4 558.7,268.8 584,283.4 		"/>
		<polygon class="st6" points="558.7,327.2 533.4,312.6 533.4,283.4 558.7,298 		"/>
	</g>
	<g>
		<polygon class="st0" points="196,517.6 170.7,503 196,488.4 221.3,503 		"/>
		<polygon class="st1" points="221.3,486.4 196,501 196,471.8 221.3,457.2 		"/>
		<polygon class="st4" points="196,471.8 170.7,457.2 196,442.6 221.3,457.2 		"/>
		<polygon class="st6" points="196,501 170.7,486.4 170.7,457.2 196,471.8 		"/>
	</g>
	<g>
		<g>
			<path class="st6" d="M312.8,308.4c-15,8.7-39.4,8.7-54.4,0c-15-8.7-15-22.7,0-31.4c15-8.7,39.4-8.7,54.4,0
				C327.8,285.7,327.8,299.8,312.8,308.4z"/>
			<path class="st10" d="M324,281.3v-7.1h-2c-1.8-3.2-4.9-6.1-9.2-8.6c-15-8.7-39.4-8.7-54.4,0c-4.3,2.5-7.4,5.5-9.2,8.6h-2v7h0
				c0,5.7,3.7,11.4,11.3,15.8c15,8.7,39.4,8.7,54.4,0C320.3,292.7,324,287,324,281.3z"/>
			<path class="st8" d="M312.8,290c-15,8.7-39.4,8.7-54.4,0c-15-8.7-15-22.7,0-31.4c15-8.7,39.4-8.7,54.4,0
				C327.8,267.2,327.8,281.3,312.8,290z"/>
			<path class="st5" d="M312.8,290c-15,8.7-39.4,8.7-54.4,0c-7.2-4.2-10.9-9.5-11.2-15c-0.3,5.9,3.4,11.9,11.2,16.4
				c15,8.7,39.4,8.7,54.4,0c7.8-4.5,11.5-10.5,11.2-16.4C323.7,280.4,320,285.8,312.8,290z"/>
		</g>
		<g>
			<path class="st5" d="M267.1,281.6c-0.6-0.4-1-0.9-1-1.4l0-14.5c0-1.1,1.6-2,3.5-2c1.9,0,3.5,0.9,3.5,2l0,12l34.8-4.3
				c1.9-0.2,3.7,0.5,4.1,1.5c0.4,1.1-0.8,2.1-2.7,2.4l-39,4.8c-1,0.1-2.1,0-2.9-0.4C267.2,281.7,267.2,281.7,267.1,281.6z"/>
		</g>
	</g>
	<g>
		<path class="st8" d="M453.9,239.8c-0.7,1.5-2.4,2-3.9,1.2c-1.5-0.8-2.1-2.7-1.4-4.2c0.7-1.5,2.4-2,3.9-1.2
			C453.9,236.4,454.6,238.3,453.9,239.8z"/>
		<path class="st5" d="M463.2,245.2c-0.7,1.5-2.4,2-3.9,1.2c-1.5-0.8-2.1-2.7-1.4-4.2s2.4-2,3.9-1.2
			C463.2,241.8,463.9,243.7,463.2,245.2z"/>
		<path class="st4" d="M472.5,250.6c-0.7,1.5-2.4,2-3.9,1.2s-2.1-2.7-1.4-4.2c0.7-1.5,2.4-2,3.9-1.2
			C472.5,247.2,473.1,249.1,472.5,250.6z"/>
		<path class="st8" d="M481.8,255.9c-0.7,1.5-2.4,2-3.9,1.2c-1.5-0.8-2.1-2.7-1.4-4.2c0.7-1.5,2.4-2,3.9-1.2
			C481.8,252.5,482.4,254.4,481.8,255.9z"/>
	</g>
	<path class="st1" d="M193.5,130.1l-1.3-0.7l0,0l0,0l-26.7,15.5c-8.8,5.1-17.1,11.9-24.8,20l45.7,26.4l57.2-33L193.5,130.1z"/>
	<g>
		<g>
			<g>
				<path class="st8" d="M242.4,130.9l-8.3-4.8l30.6-17.7c1.4-0.8,1.4-2.2,0-3l-31.2-18c-1.4-0.8-3.8-0.8-5.2,0L197.6,105l-8.3-4.8
					l30.6-17.7c6-3.5,15.8-3.5,21.8,0l31.2,18c6,3.5,6,9.1,0,12.6L242.4,130.9z"/>
			</g>
			<g>
				<path class="st4" d="M255.8,133c0-4.4-2.7-9.6-6-11.5l-55.4-32c-1.5-0.9-2.8-0.9-3.9-0.3l0,0l-66.2,38.4l64,48.2l65.2-37.8
					c0.2-0.1,0.4-0.2,0.6-0.3l0,0l0,0C255.1,136.8,255.8,135.2,255.8,133z"/>
				<path class="st6" d="M188.3,175.8l65.2-37.8c0.2-0.1,0.4-0.2,0.6-0.3l0,0v0c1.1-0.8,1.8-2.4,1.8-4.7c0-2.1-0.6-4.4-1.6-6.4
					l-74.3,42.9L188.3,175.8z"/>
				<path class="st6" d="M184.1,175.7l-55.4-32c-3.3-1.9-6-7.1-6-11.5l0,0c0-4.4,2.7-6.5,6-4.6l55.4,32c3.3,1.9,6,7.1,6,11.5l0,0
					C190.1,175.5,187.4,177.6,184.1,175.7z"/>
				<path class="st5" d="M184.8,159.3l-55.4-32c-1.5-0.9-2.9-0.9-4-0.3c1-0.3,2.1-0.1,3.3,0.6l55.4,32c3.3,1.9,6,7.1,6,11.5v0
					c0,2.4-0.8,4.1-2,4.8c1.6-0.5,2.7-2.3,2.7-5.1v0C190.8,166.4,188.1,161.2,184.8,159.3z"/>
			</g>
			<path class="st5" d="M175.8,164.9l-6.7-3.8c-0.7-0.4-1.2-1.4-1.2-2.3l0,0c0-0.9,0.5-1.3,1.2-0.9l6.7,3.8c0.7,0.4,1.2,1.4,1.2,2.3
				l0,0C177,164.8,176.5,165.3,175.8,164.9z"/>
		</g>
		<g>
			<path class="st6" d="M183.3,119.4c2-1.2,2-3.1,0-4.2c-2-1.1-5.3-1.1-7.3,0.1c-2,1.2-2,3.1,0,4.2
				C178,120.6,181.3,120.6,183.3,119.4z"/>
			<path class="st5" d="M194.5,125.7c2-1.2,2-3.1,0-4.2c-2-1.1-5.3-1.1-7.3,0.1c-2,1.2-2,3.1,0,4.2
				C189.2,126.9,192.5,126.9,194.5,125.7z"/>
			<path class="st5" d="M205.6,132c2-1.2,2-3.1,0-4.2c-2-1.1-5.3-1.1-7.3,0.1c-2,1.2-2,3.1,0,4.2C200.3,133.2,203.6,133.1,205.6,132
				z"/>
		</g>
	</g>
	<g>
		<path class="st0" d="M73.5,467.8l-50.7-29.3c-3.1-1.8-2.7-4.9,0.9-7l48.9-28.2c3.6-2.1,9-2.3,12.1-0.5l50.7,29.3
			c3.1,1.8,2.7,4.9-0.9,7l-48.9,28.2C82,469.4,76.6,469.6,73.5,467.8z"/>
		<path class="st2" d="M137.5,417.9L137.5,417.9v-17.5l-39.2,0l-13.5-7.8c-3.1-1.8-8.5-1.6-12.1,0.5l-12.6,7.3l-39.2,0v18
			c-0.1,1.2,0.6,2.4,2.1,3.3l50.7,29.3c3.1,1.8,8.5,1.6,12.1-0.5l48.9-28.2C136.6,420.9,137.6,419.3,137.5,417.9z"/>
		<path class="st2" d="M79.1,391.4c-2.3,0.1-4.6,0.6-6.5,1.7l-12.6,7.3l-39.2,0v18c-0.1,1.2,0.6,2.4,2.1,3.3l50.7,29.3
			c1.5,0.9,3.5,1.3,5.6,1.2V391.4z"/>
		<path class="st6" d="M25.1,400.3l-4.4,0v18c-0.1,1.2,0.6,2.4,2.1,3.3l2.4,1.4V400.3z"/>
		<path class="st6" d="M74.2,451.2c2.7,1.1,6.6,1.1,9.7-0.1v-20.4h-9.7V451.2z"/>
		<path class="st4" d="M73.5,432.9l-50.7-29.3c-3.1-1.8-2.7-4.9,0.9-7l48.9-28.2c3.6-2.1,9-2.3,12.1-0.5l50.7,29.3
			c3.1,1.8,2.7,4.9-0.9,7l-48.9,28.2C82,434.5,76.6,434.7,73.5,432.9z"/>
		<path class="st5" d="M134.5,400.7L85.6,429c-3.6,2.1-9,2.3-12.1,0.5l-50.7-29.3c-0.7-0.4-1.2-0.9-1.6-1.4
			c-1.1,1.7-0.6,3.6,1.6,4.8l50.7,29.3c3.1,1.8,8.5,1.6,12.1-0.5l48.9-28.2c2.8-1.6,3.6-3.9,2.4-5.6
			C136.4,399.3,135.6,400.1,134.5,400.7z"/>
		<g>
			<path class="st4" d="M118.8,422.5c0,1.3-0.9,2.9-2,3.5c-1.1,0.7-2,0.1-2-1.2c0-1.3,0.9-2.9,2-3.5
				C117.9,420.7,118.8,421.2,118.8,422.5z"/>
			<path class="st4" d="M125.4,418.7c0,1.3-0.9,2.9-2,3.5c-1.1,0.7-2,0.1-2-1.2c0-1.3,0.9-2.9,2-3.5
				C124.5,416.9,125.4,417.4,125.4,418.7z"/>
			<path class="st4" d="M132,414.9c0,1.3-0.9,2.9-2,3.5c-1.1,0.7-2,0.1-2-1.2s0.9-2.9,2-3.5C131.1,413.1,132,413.6,132,414.9z"/>
		</g>
		<g>
			<path class="st6" d="M76.4,414.8l-23.7-13.7c-1.5-0.8-1.3-2.3,0.4-3.3L76,384.6c1.7-1,4.2-1.1,5.7-0.2l23.7,13.7
				c1.5,0.8,1.3,2.3-0.4,3.3l-22.9,13.2C80.4,415.5,77.9,415.6,76.4,414.8z"/>
			<path class="st4" d="M78.7,403.3l-3.3-1.9c-0.2-0.1-0.2-0.3,0.1-0.5l3.2-1.8c0.2-0.1,0.6-0.1,0.8,0l3.3,1.9
				c0.2,0.1,0.2,0.3-0.1,0.5l-3.2,1.8C79.3,403.4,78.9,403.4,78.7,403.3z"/>
			<path class="st2" d="M52.7,401.1L52.7,401.1c0.2,0,0.3-0.1,0.4-0.2L76,387.7c1.7-1,4.2-1.1,5.7-0.2l23.6,13.6
				c1.3-1,1.4-2.3,0.1-3l-23.7-13.7c-1.5-0.8-4-0.7-5.7,0.2l-22.9,13.2C51.5,398.8,51.3,400.2,52.7,401.1z"/>
		</g>
	</g>
</g>
</svg>
