<svg xmlns="http://www.w3.org/2000/svg" width="209.2" height="56" viewBox="0 0 209.2 56">
  <g id="Group_9" data-name="Group 9" transform="translate(-1024.999 -564)">
    <path id="Exclusion_1" data-name="Exclusion 1" d="M20.367,58A16.933,16.933,0,0,1,13.2,56.557a18.687,18.687,0,0,1-7.839-7.472A37.247,37.247,0,0,1,.923,37.651,37.88,37.88,0,0,1,.231,25.265,27.4,27.4,0,0,1,4.192,13.758,27.635,27.635,0,0,1,12.486,5.41,19.637,19.637,0,0,1,22.946,2c.446,0,.892.021,1.325.063,7.534.771,14.06,7.976,19.45,14.923a63.866,63.866,0,0,1,7.236,11.072c1.954,4.054,2.6,7.48,1.985,10.474-.6,3.033-2.585,6-5.894,8.819A46.588,46.588,0,0,1,36.092,54C30.2,56.654,24.906,58,20.367,58Zm169.985-.448h-.336c-.223,0-.336-.162-.336-.481V54.24a.426.426,0,0,1,.48-.481h.1a9.2,9.2,0,0,0,3.024-.48,3.753,3.753,0,0,0,1.823-1.608,14.905,14.905,0,0,0,1.392-3.528.184.184,0,0,0,.024-.167l-.024-.121L188.48,24.1l-.048-.192c0-.223.145-.336.432-.336h3.888a.562.562,0,0,1,.576.383l5.424,18.1a.154.154,0,0,0,.144.1.155.155,0,0,0,.144-.1l5.376-18.1a.562.562,0,0,1,.576-.383h3.792a.427.427,0,0,1,.357.127.455.455,0,0,1,.027.4L200.432,49.68a20.607,20.607,0,0,1-2.208,4.92,6.036,6.036,0,0,1-2.88,2.28A14.7,14.7,0,0,1,190.352,57.552ZM69.776,57.168H66.128a.426.426,0,0,1-.481-.48V24.048a.426.426,0,0,1,.481-.48h3.648a.425.425,0,0,1,.48.48v1.584a.164.164,0,0,0,.072.144.091.091,0,0,0,.051.016.178.178,0,0,0,.117-.064,7.562,7.562,0,0,1,2.5-1.872,7.319,7.319,0,0,1,3.12-.672,9.359,9.359,0,0,1,5.736,1.7,9.75,9.75,0,0,1,3.336,4.824,18.646,18.646,0,0,1,.912,6.144,19.587,19.587,0,0,1-.768,5.808,9.689,9.689,0,0,1-3.312,4.968,9.525,9.525,0,0,1-5.9,1.752,7.6,7.6,0,0,1-3.1-.648,7.225,7.225,0,0,1-2.52-1.848.179.179,0,0,0-.118-.064.092.092,0,0,0-.051.016.164.164,0,0,0-.072.144v10.7A.425.425,0,0,1,69.776,57.168Zm5.9-30a4.6,4.6,0,0,0-4.224,2.592A12.726,12.726,0,0,0,70.3,35.808a12.3,12.3,0,0,0,1.247,6.143A4.455,4.455,0,0,0,75.632,44.4,4.666,4.666,0,0,0,79.9,42.1,11.362,11.362,0,0,0,81.44,35.76a12.752,12.752,0,0,0-1.2-5.952A4.788,4.788,0,0,0,75.68,27.168Zm52.128,21.263a10.79,10.79,0,0,1-5.9-1.535,9.411,9.411,0,0,1-3.6-4.369,18.306,18.306,0,0,1-1.152-6.863,20.421,20.421,0,0,1,.528-5.328,9.217,9.217,0,0,1,3.456-5.233,10.314,10.314,0,0,1,6.287-1.92c3.217,0,5.656.815,7.249,2.424a11.722,11.722,0,0,1,2.928,7.128,38.464,38.464,0,0,1,.144,4.416.425.425,0,0,1-.48.48H121.952a.17.17,0,0,0-.192.193,8.355,8.355,0,0,0,.288,2.5,5.153,5.153,0,0,0,2.136,3,7.155,7.155,0,0,0,4.056,1.08,6.189,6.189,0,0,0,5.472-2.928c.094-.187.205-.283.332-.283a.464.464,0,0,1,.292.139l2.736,1.824a.456.456,0,0,1,.144.624,9.36,9.36,0,0,1-3.816,3.408A12.294,12.294,0,0,1,127.808,48.432Zm-.384-21.263a5.457,5.457,0,0,0-3.407,1.031,5.112,5.112,0,0,0-1.824,2.76,11.267,11.267,0,0,0-.432,2.688.17.17,0,0,0,.192.192h10.993a.17.17,0,0,0,.192-.192,14.129,14.129,0,0,0-.288-2.353,5.3,5.3,0,0,0-5.424-4.127Zm47.76,21.216a10.771,10.771,0,0,1-6.192-1.8,9.477,9.477,0,0,1-3.7-5.016,18.556,18.556,0,0,1-.864-5.856,17.775,17.775,0,0,1,.816-5.76,9.481,9.481,0,0,1,3.7-4.968,10.938,10.938,0,0,1,6.287-1.8,10.28,10.28,0,0,1,6.025,1.8,9.89,9.89,0,0,1,3.672,4.92,17.4,17.4,0,0,1,.864,5.76,18.448,18.448,0,0,1-.864,5.9,9.571,9.571,0,0,1-3.649,5.016A10.467,10.467,0,0,1,175.184,48.384Zm-.1-21.216a5.541,5.541,0,0,0-3.407,1.08,5.936,5.936,0,0,0-2.065,3.047,15.413,15.413,0,0,0-.527,4.464,15.925,15.925,0,0,0,.527,4.513,5.634,5.634,0,0,0,2.04,3.047,5.8,5.8,0,0,0,3.528,1.08,5.467,5.467,0,0,0,3.36-1.08,5.944,5.944,0,0,0,2.065-3.047,16.554,16.554,0,0,0,.527-4.513,17.558,17.558,0,0,0-.48-4.464,5.94,5.94,0,0,0-2.064-3.047A5.7,5.7,0,0,0,175.088,27.168ZM153.152,48H149.12a.562.562,0,0,1-.576-.383L140.72,24.1l-.049-.192c0-.223.145-.336.432-.336h4.032a.561.561,0,0,1,.576.383l5.28,17.376a.154.154,0,0,0,.144.1.155.155,0,0,0,.144-.1l5.232-17.376a.562.562,0,0,1,.576-.383l4.032.048a.427.427,0,0,1,.357.128.456.456,0,0,1,.027.4l-7.776,23.472A.562.562,0,0,1,153.152,48Zm-42.1,0h-3.649a.425.425,0,0,1-.48-.48V32.592a5.488,5.488,0,0,0-1.392-3.888,4.842,4.842,0,0,0-3.7-1.488,4.941,4.941,0,0,0-3.7,1.488,5.316,5.316,0,0,0-1.44,3.84V47.52a.425.425,0,0,1-.48.48H92.576a.425.425,0,0,1-.48-.48V14.88a.425.425,0,0,1,.48-.48h3.649a.425.425,0,0,1,.48.48v10.9a.164.164,0,0,0,.072.144.082.082,0,0,0,.045.016c.028,0,.053-.022.074-.064a7.3,7.3,0,0,1,6.1-2.641,8.519,8.519,0,0,1,6.24,2.281,8.321,8.321,0,0,1,2.3,6.168V47.52A.425.425,0,0,1,111.056,48Z" transform="translate(1025 562)" fill="#442d81"/>
    <path id="blob" d="M-16.38-56.565c5.659,7.294,10.563,15.049,9.222,21.546-1.3,6.539-8.8,11.821-16.851,15.468-8.006,3.6-16.558,5.491-22.887,2.557S-57.376-27.683-59.178-35.9c-1.761-8.216-1.174-16.851,3.27-23.893,4.4-7,12.7-12.408,20.079-11.7C-28.452-70.733-22.039-63.858-16.38-56.565Z" transform="translate(1085.1 635.551)" fill="#7124f6"/>
  </g>
</svg>
